<?xml version="1.0" standalone="no"?>
<!DOCTYPE svg PUBLIC "-//W3C//DTD SVG 20010904//EN"
 "http://www.w3.org/TR/2001/REC-SVG-20010904/DTD/svg10.dtd">
<svg version="1.0" xmlns="http://www.w3.org/2000/svg"
 width="640.000000pt" height="640.000000pt" viewBox="0 0 640.000000 640.000000"
 preserveAspectRatio="xMidYMid meet">
<metadata>
Created by potrace 1.14, written by Peter Selinger 2001-2017
</metadata>
<g transform="translate(0.000000,640.000000) scale(0.100000,-0.100000)"
fill="#000000" stroke="none">
<path d="M1180 6385 c0 -8 5 -46 12 -84 7 -39 9 -73 6 -76 -3 -3 -45 -12 -94
-20 -49 -8 -136 -28 -194 -45 -166 -50 -165 -49 -340 -40 -231 13 -344 22
-352 27 -5 2 -13 1 -18 -2 -6 -4 7 -26 31 -53 45 -51 89 -134 89 -170 0 -12
-9 -63 -20 -114 -17 -75 -19 -100 -10 -141 13 -62 18 -71 85 -152 30 -37 55
-76 55 -86 0 -9 -43 -80 -95 -155 -52 -76 -95 -141 -95 -144 0 -4 51 -28 112
-55 62 -27 118 -53 125 -59 9 -9 8 -51 -3 -186 -8 -96 -17 -180 -19 -186 -2
-7 -19 -10 -42 -8 -21 2 -106 11 -189 19 -83 8 -167 15 -187 15 l-37 0 0
-2335 0 -2335 201 0 c196 0 201 1 220 22 10 13 18 31 19 41 0 10 4 16 9 13 5
-4 15 7 22 23 7 16 17 27 21 25 4 -3 8 2 8 10 0 9 5 16 10 16 6 0 10 10 10 22
0 12 3 19 6 15 7 -6 54 41 54 54 0 5 15 26 33 46 37 43 64 81 89 127 9 17 17
27 18 22 0 -12 40 39 40 52 0 6 4 12 8 14 18 7 82 100 76 110 -4 6 -2 8 3 5 6
-4 19 5 29 19 11 15 25 32 32 39 6 8 12 16 12 20 0 4 6 13 13 20 25 29 37 44
37 49 0 2 9 15 20 28 60 71 90 111 90 120 0 5 12 23 28 38 41 45 52 58 52 69
0 5 4 11 8 13 14 5 102 131 102 146 0 7 4 11 9 8 5 -3 17 6 27 21 9 15 21 32
26 38 5 5 34 44 65 85 30 41 64 84 74 95 10 12 21 36 25 55 4 28 3 32 -6 20
-10 -13 -11 -13 -6 3 3 9 2 37 -3 62 -5 25 -5 47 -1 50 3 2 28 -2 54 -10 68
-21 162 -21 226 -2 40 13 73 33 122 77 67 61 170 117 234 127 30 5 40 0 79
-36 62 -57 123 -81 223 -89 l84 -7 59 -180 c32 -99 59 -184 58 -190 0 -13
-109 -76 -119 -70 -4 3 -13 25 -19 49 -6 25 -16 48 -21 51 -6 4 -34 -5 -63
-18 -73 -34 -119 -41 -161 -23 -20 8 -36 11 -36 7 0 -5 9 -39 21 -76 14 -47
17 -71 10 -78 -6 -6 -50 -13 -98 -15 l-87 -5 37 -14 c43 -18 40 -33 -7 -33
-37 0 -96 -17 -111 -33 -7 -6 28 -8 103 -4 61 3 112 4 112 2 0 -8 -53 -101
-82 -143 -29 -42 -30 -62 -2 -62 23 0 16 -19 -11 -32 -14 -6 -25 -15 -25 -19
0 -5 60 -8 134 -8 159 1 181 -7 171 -61 -4 -19 -18 -66 -31 -105 -14 -38 -30
-88 -36 -110 -6 -22 -14 -42 -18 -45 -11 -7 -56 -138 -64 -185 -4 -22 -15 -48
-23 -57 -9 -10 -13 -24 -9 -33 3 -9 2 -14 -3 -10 -19 11 -22 -72 -5 -124 l16
-51 63 0 c60 0 63 1 68 27 3 16 19 73 36 128 17 55 43 143 56 195 43 161 46
173 55 164 5 -5 20 -43 35 -84 119 -335 144 -413 139 -421 -3 -5 80 -9 200 -9
l205 0 34 58 c19 31 30 59 25 61 -5 1 -44 -12 -87 -29 -134 -56 -166 -28 -138
118 9 48 21 132 27 187 6 55 15 120 20 145 5 25 12 57 15 73 6 32 19 33 94 8
86 -29 143 -40 234 -47 67 -5 89 -3 115 10 18 9 32 21 32 26 0 5 17 25 37 45
36 35 37 38 35 103 -1 37 -9 105 -17 152 -8 47 -17 105 -20 130 -5 36 -11 48
-34 60 -52 27 -131 85 -131 96 0 6 20 29 44 52 31 29 43 47 39 60 -6 24 33
102 51 102 8 0 16 -10 20 -22 5 -21 11 -18 73 44 51 50 77 68 106 73 31 6 40
14 53 43 36 87 48 209 48 492 0 151 -3 313 -7 360 l-8 85 106 34 106 34 -45
46 c-51 51 -56 67 -26 76 11 3 29 18 41 33 18 24 20 35 14 103 -7 75 -4 90 31
160 2 4 -58 4 -133 1 -77 -3 -206 1 -296 8 -136 12 -171 11 -236 -1 -79 -15
-151 -16 -309 -7 -84 5 -118 -1 -92 -17 26 -16 5 -89 -39 -135 -23 -24 -38
-69 -33 -100 2 -17 8 -30 13 -30 18 0 8 -42 -16 -65 -29 -30 -51 -32 -60 -6
-11 34 -129 205 -229 331 l-97 121 3 84 3 84 74 -72 c145 -140 154 -143 165
-52 17 133 28 380 24 505 -5 125 -11 165 -42 285 -86 329 -250 766 -456 1215
-34 74 -68 149 -76 167 l-14 32 108 72 c105 72 172 126 172 139 0 4 -47 37
-105 74 -58 37 -105 69 -105 71 0 1 16 29 36 61 31 52 35 65 31 109 -4 50 -32
118 -85 205 -26 43 -27 51 -25 163 2 106 0 117 -15 113 -151 -43 -372 -86
-440 -86 -34 0 -34 1 -53 98 l-12 62 -208 0 c-178 0 -209 -2 -209 -15z m877
-277 c-3 -8 -6 -5 -6 6 -1 11 2 17 5 13 3 -3 4 -12 1 -19z m-1687 -136 c16
-34 30 -68 30 -74 0 -7 -20 28 -45 77 -25 50 -45 95 -45 100 1 13 22 -23 60
-103z m1714 42 c3 -8 2 -12 -4 -9 -6 3 -10 10 -10 16 0 14 7 11 14 -7z m50
-113 c20 -47 36 -89 36 -95 -1 -6 -17 -29 -36 -51 -38 -43 -36 -31 4 22 l24
33 -36 83 c-32 75 -43 109 -32 96 2 -2 20 -42 40 -88z m-1753 -126 c-15 -104
-15 -105 8 -136 12 -17 21 -33 18 -35 -2 -2 -15 13 -29 33 l-26 38 16 103 c8
56 18 102 21 102 4 0 0 -47 -8 -105z m1157 -244 c11 -16 46 -56 77 -90 32 -33
55 -61 53 -61 -9 0 -124 -21 -140 -26 -28 -8 -21 -27 7 -22 22 5 25 2 25 -25
0 -66 32 -202 53 -224 24 -27 81 -31 114 -8 32 22 36 64 18 161 -9 47 -13 89
-10 92 3 3 17 -5 30 -19 20 -20 27 -43 41 -139 8 -63 20 -123 25 -133 35 -65
-172 -229 -336 -266 -80 -19 -80 -18 -58 -97 18 -64 21 -69 49 -70 80 -4 244
-28 244 -36 0 -5 10 -12 23 -17 16 -7 48 -53 102 -153 43 -78 108 -197 145
-263 74 -132 178 -319 292 -525 90 -163 90 -163 72 -188 -13 -20 -110 -50
-130 -41 -5 2 -121 117 -257 255 l-248 251 14 34 c8 21 28 42 50 54 l37 20 68
-68 c37 -37 71 -67 76 -67 4 0 -42 97 -103 215 -119 230 -144 305 -103 305
l22 0 -19 48 -19 47 -88 16 c-414 76 -390 71 -361 86 25 13 27 17 20 56 -15
98 -5 91 -134 93 -147 2 -260 35 -318 93 -56 56 -111 224 -111 343 0 36 1 37
50 47 70 15 68 16 68 -33 0 -50 18 -147 34 -189 20 -52 87 -64 134 -24 21 18
26 31 26 63 -2 57 -28 182 -42 199 -6 8 -9 19 -6 24 13 20 -15 20 -125 1 -62
-11 -115 -17 -118 -14 -8 8 46 111 106 201 l56 84 41 -75 c23 -42 67 -107 98
-145 83 -102 128 -125 128 -67 0 36 69 124 166 211 49 44 96 87 104 97 21 25
33 22 58 -11z m731 -51 c-13 -11 -44 -32 -69 -47 -25 -15 -63 -40 -84 -55 -22
-16 -42 -25 -45 -22 -3 4 -1 9 5 11 6 2 55 34 110 71 96 66 132 84 83 42z
m-1856 -362 c42 -17 77 -35 77 -39 0 -6 -158 56 -169 67 -11 11 21 1 92 -28z
m1535 -5 c-4 -21 -76 -39 -92 -23 -13 13 -4 21 36 30 51 12 60 11 56 -7z
m-1178 -208 c0 -10 -15 -17 -42 -22 -50 -7 -53 -7 -53 9 0 13 34 25 73 27 13
1 22 -5 22 -14z m386 -747 l57 -172 -6 -173 c-4 -95 -3 -173 1 -173 4 0 15 19
24 43 9 23 58 139 108 257 51 118 95 234 99 257 11 59 35 83 83 83 34 0 41 -4
56 -32 9 -18 42 -57 72 -86 52 -51 54 -54 35 -65 -11 -7 -35 -27 -53 -46 l-33
-34 -23 22 c-29 27 -34 27 -47 -6 -5 -16 -40 -103 -76 -196 -36 -92 -64 -169
-61 -172 4 -4 224 14 361 30 35 4 47 2 47 -8 0 -10 -47 -18 -192 -31 -106 -10
-203 -20 -214 -23 -21 -4 -76 -128 -170 -381 -14 -40 -29 -72 -33 -72 -3 0
-34 -2 -68 -4 -86 -5 -97 4 -94 85 6 214 59 1069 66 1069 2 0 29 -77 61 -172z
m234 93 c0 -9 -158 -24 -171 -15 -5 3 -7 10 -4 15 8 11 175 12 175 0z m1405
-3543 c-4 -23 -11 -49 -15 -58 -4 -8 -16 -42 -25 -74 -14 -47 -19 -56 -27 -43
-9 17 -58 174 -58 187 0 14 46 29 88 29 l44 1 -7 -42z"/>
<path d="M5307 5767 l-27 -13 30 -29 c42 -40 37 -85 -13 -125 -11 -10 -17 -22
-13 -28 10 -17 36 -15 36 3 0 8 20 26 43 40 50 29 111 33 145 9 31 -22 27 -3
-8 37 -16 19 -30 37 -30 41 0 14 -80 68 -107 73 -15 2 -40 -2 -56 -8z"/>
<path d="M5036 5495 c-68 -34 -73 -35 -188 -35 -134 0 -163 -8 -244 -70 -51
-40 -51 -40 -87 -25 -20 8 -42 15 -48 15 -6 0 -35 -24 -63 -53 -28 -29 -63
-61 -79 -72 l-28 -20 20 -40 c34 -72 42 -136 26 -200 -8 -31 -22 -70 -31 -86
l-15 -30 36 7 c44 8 65 -8 65 -50 0 -35 20 -69 64 -106 55 -47 68 -54 85 -44
9 6 30 7 46 3 17 -4 65 -7 108 -8 61 -1 77 -4 77 -16 0 -8 -12 -17 -27 -21
-53 -11 -61 -15 -66 -27 -3 -7 9 -53 25 -102 l30 -90 -21 -65 c-11 -36 -28
-88 -36 -116 -9 -29 -37 -85 -62 -125 -25 -41 -68 -109 -95 -152 -48 -75 -49
-79 -34 -103 14 -20 14 -24 2 -24 -39 0 -35 25 45 265 43 131 79 242 79 245 0
8 -146 40 -245 55 -46 7 -55 1 -116 -70 -40 -47 -167 -187 -289 -317 -60 -64
-59 -64 -270 -103 -142 -26 -240 -49 -240 -56 0 -4 28 -18 63 -32 262 -108
364 -147 393 -153 19 -3 37 -11 40 -16 12 -19 24 17 24 73 0 40 5 61 17 70 13
11 68 13 281 11 249 -3 264 -2 258 15 -5 12 8 32 51 73 57 54 134 175 161 253
8 20 23 42 34 48 17 9 25 6 49 -17 17 -16 32 -39 36 -52 l6 -25 116 7 c64 4
126 10 139 13 12 3 22 1 22 -5 0 -5 -39 -13 -87 -16 -49 -4 -110 -9 -136 -12
l-49 -6 7 -37 c4 -20 10 -40 14 -44 13 -13 212 11 231 28 22 20 39 19 64 -4
22 -19 78 -41 105 -41 14 0 -94 109 -109 110 -13 1 -120 110 -120 122 0 20 32
48 55 48 16 0 83 -48 127 -92 25 -25 23 -14 -16 61 -64 125 -116 259 -116 298
0 21 -3 61 -6 90 -6 48 -9 52 -38 58 -54 11 -66 16 -66 28 0 14 104 58 228 97
l87 27 5 39 c3 21 3 71 0 110 -3 39 -3 96 -2 126 3 47 7 57 25 63 12 3 46 13
76 21 72 20 75 22 55 52 -15 23 -89 117 -104 132 -29 29 -70 93 -70 110 0 20
-4 21 -60 14 -47 -5 -65 -3 -84 10 -36 23 -52 20 -130 -19z m-38 -215 l32 -51
-31 -6 c-40 -8 -27 -18 18 -14 28 2 41 -3 57 -21 12 -13 42 -41 69 -62 41 -33
47 -43 47 -75 -2 -134 -56 -198 -212 -247 -49 -15 -58 -21 -58 -41 0 -16 -6
-23 -19 -23 -11 0 -26 -3 -34 -6 -9 -3 -16 2 -19 14 -5 16 -18 20 -85 24 -82
6 -168 35 -196 66 -9 10 -30 58 -47 109 l-32 92 26 45 c28 48 33 51 100 61 25
4 49 12 52 17 4 7 -11 8 -45 3 -28 -4 -51 -4 -51 0 0 10 51 94 61 101 5 3 36
-19 69 -49 58 -54 164 -116 177 -103 4 3 -10 23 -30 44 -43 44 -49 88 -17 117
16 15 109 53 131 55 3 0 20 -23 37 -50z m-49 -666 c-27 -130 -23 -129 -84 -34
-69 106 -66 111 71 118 l31 2 -18 -86z m31 -221 l58 -47 -30 -28 c-17 -15 -34
-28 -38 -28 -8 0 -100 96 -100 105 0 17 23 45 37 45 8 0 41 -21 73 -47z"/>
<path d="M5009 5159 c-18 -18 -20 -28 -14 -72 13 -97 44 -133 89 -104 20 14
26 25 26 55 -1 115 -49 173 -101 121z"/>
<path d="M4588 5099 c-36 -20 -16 -172 23 -184 30 -10 66 2 72 24 7 30 -13
134 -30 153 -18 20 -39 22 -65 7z"/>
<path d="M4444 5424 c-18 -14 -18 -15 4 -4 12 6 22 13 22 15 0 8 -5 6 -26 -11z"/>
<path d="M5412 4559 c-84 -38 -159 -69 -167 -69 -23 0 -19 -14 28 -98 24 -42
58 -108 77 -147 18 -38 36 -72 39 -75 4 -3 13 -21 21 -40 8 -19 25 -54 38 -77
25 -46 38 -47 125 -17 22 8 97 23 166 34 69 11 153 29 187 40 76 26 104 18
123 -36 20 -56 50 -96 68 -90 17 7 31 17 156 116 49 38 97 72 108 75 16 5 19
16 19 71 l0 65 -47 -8 c-27 -4 -104 -8 -173 -8 l-125 0 -84 53 c-47 29 -93 61
-102 71 -10 10 -50 40 -91 66 -40 27 -89 61 -108 75 -19 15 -51 36 -70 47
l-35 21 -153 -69z"/>
<path d="M5655 3989 c-67 -8 -196 -49 -222 -71 -19 -16 -16 -52 8 -82 18 -23
20 -31 10 -52 -14 -32 -14 -34 4 -34 18 0 20 -61 4 -111 -18 -52 -24 -53 -51
-12 -15 21 -39 52 -56 70 -16 17 -32 38 -35 47 -4 10 -18 16 -36 16 -17 0 -50
6 -73 14 -24 8 -81 19 -128 25 -47 6 -102 14 -122 17 -28 4 -38 2 -38 -8 0
-23 -50 -112 -78 -137 -21 -19 -25 -31 -23 -67 2 -36 -3 -48 -24 -68 -34 -31
-49 -121 -41 -235 7 -97 20 -131 59 -149 15 -7 25 -18 22 -23 -4 -5 -14 -5
-26 2 -30 15 -34 5 -6 -14 13 -9 32 -24 42 -33 17 -17 17 -16 10 14 -6 31 -6
32 30 32 43 0 165 46 182 69 7 9 13 35 13 58 0 36 3 43 24 49 44 11 69 1 77
-30 4 -15 15 -36 23 -45 14 -15 14 -19 -4 -34 -11 -9 -20 -14 -20 -11 0 3 -19
-8 -42 -25 -23 -17 -53 -31 -66 -31 -20 0 -22 -3 -16 -22 4 -13 10 -38 13 -57
6 -33 8 -34 103 -61 53 -15 101 -31 107 -34 6 -4 9 4 6 24 l-4 30 55 0 c29 0
72 7 94 16 23 9 43 14 46 11 3 -3 22 12 43 33 49 51 62 42 62 -46 0 -111 -8
-146 -40 -176 l-30 -27 21 -153 c11 -84 24 -161 30 -172 5 -10 5 -16 0 -12 -5
3 -6 -15 -1 -47 5 -29 11 -82 13 -119 2 -37 7 -71 9 -75 6 -10 22 -164 18
-177 -2 -10 16 -176 25 -218 5 -24 1 -29 -32 -43 -20 -8 -54 -15 -75 -15 -34
0 -39 3 -39 23 0 15 -3 18 -8 9 -9 -13 -34 127 -36 202 -1 23 -4 46 -8 52 -4
6 -10 49 -13 94 -5 83 -14 120 -16 64 0 -16 -2 -47 -4 -68 -3 -22 1 -46 7 -53
6 -7 6 -13 1 -13 -5 0 -11 -39 -12 -87 -2 -49 -5 -106 -6 -128 -1 -22 -3 -55
-4 -73 -1 -32 -2 -33 -35 -28 -27 4 -33 2 -32 -11 1 -20 -51 -40 -73 -26 -26
15 -50 4 -53 -25 -3 -24 -8 -28 -56 -35 -29 -5 -50 -12 -47 -17 3 -5 28 -16
55 -25 47 -15 50 -19 50 -50 0 -24 11 -48 40 -83 21 -28 43 -53 48 -56 15 -9
129 31 165 58 l35 27 15 -21 c16 -23 79 -34 107 -19 8 4 27 10 42 13 36 8 50
54 53 173 l3 93 -29 0 c-35 0 -35 -4 -8 147 11 65 23 134 26 153 3 19 10 42
14 52 9 17 35 165 49 278 4 35 13 66 19 68 6 2 19 11 30 20 16 15 18 26 11
102 -9 105 -39 177 -76 186 -26 7 -26 7 -21 83 3 42 6 77 6 79 2 7 27 0 40
-12 9 -8 23 -16 31 -18 8 -2 25 -18 37 -37 23 -36 60 -51 69 -27 4 11 34 13
157 9 84 -2 158 -6 165 -8 7 -3 12 -21 12 -44 0 -22 3 -42 8 -44 4 -3 42 9 85
25 l77 30 0 38 c0 37 -2 39 -37 47 -21 4 -40 8 -43 9 -3 1 -15 5 -26 9 -12 4
-31 20 -43 36 -12 16 -27 27 -33 23 -7 -4 -8 -3 -4 4 4 7 -20 45 -56 89 -35
43 -71 89 -80 102 -15 22 -21 23 -80 17 -35 -4 -80 -11 -100 -15 -46 -11 -56
-1 -64 64 -7 47 -34 85 -61 85 -7 0 -13 6 -13 14 0 10 19 14 78 15 80 2 132 7
136 13 2 2 8 26 14 53 27 124 25 120 62 122 19 1 43 2 52 2 19 1 17 8 -16 86
-35 82 -36 84 -21 99 8 8 15 21 15 29 0 30 78 38 104 11 21 -21 20 -11 -5 39
-27 52 -36 59 -72 52 -18 -3 -26 -1 -22 6 19 29 -117 90 -251 114 -48 8 -92
14 -98 14 -6 -1 -42 -5 -81 -10z m-15 -626 c0 -7 -10 -13 -22 -13 -35 0 -50
-17 -51 -57 0 -7 -4 -10 -8 -7 -4 2 -17 -12 -29 -31 -24 -39 -45 -44 -67 -17
-13 15 -14 15 -9 0 2 -9 8 -32 11 -51 7 -34 6 -35 -41 -51 -49 -16 -149 -22
-157 -8 -3 4 -8 26 -12 50 l-7 42 39 0 c76 0 243 71 243 104 0 7 -7 29 -15 49
-8 19 -12 37 -9 39 9 10 134 -37 134 -49z m544 -359 c3 -8 2 -12 -4 -9 -6 3
-10 10 -10 16 0 14 7 11 14 -7z m-839 -1384 c6 -9 -9 -18 -62 -34 -36 -11 -28
13 10 29 39 17 44 18 52 5z"/>
<path d="M5218 2157 c-9 -8 -13 -18 -9 -25 5 -9 14 -5 29 13 23 26 10 34 -20
12z"/>
<path d="M5090 2131 c0 -5 3 -16 6 -24 5 -14 8 -13 25 1 14 12 15 18 6 24 -17
11 -37 10 -37 -1z"/>
<path d="M5153 2096 c18 -14 18 -16 1 -45 -10 -17 -22 -31 -26 -31 -4 0 -8 -4
-8 -10 0 -5 7 -10 15 -10 8 0 15 8 15 17 0 9 9 27 21 39 20 22 22 22 55 6 34
-16 41 -29 27 -48 -5 -5 0 -1 10 10 18 19 17 20 -20 39 -21 11 -40 24 -41 28
-2 5 -8 7 -13 4 -5 -3 -19 -1 -31 5 -21 10 -22 10 -5 -4z"/>
<path d="M5133 1972 c2 -12 6 -24 10 -28 3 -4 4 4 2 16 -6 30 -16 40 -12 12z"/>
<path d="M5183 1986 c1 -1 9 -7 18 -14 13 -10 19 -10 28 1 8 11 5 14 -19 14
-17 0 -29 -1 -27 -1z"/>
<path d="M5250 1960 c8 -5 20 -10 25 -10 6 0 3 5 -5 10 -8 5 -19 10 -25 10 -5
0 -3 -5 5 -10z"/>
<path d="M5290 1941 c0 -6 5 -13 10 -16 6 -3 10 1 10 9 0 9 -4 16 -10 16 -5 0
-10 -4 -10 -9z"/>
<path d="M5157 1913 c-14 -14 -6 -39 12 -39 15 0 17 4 11 17 -5 9 -6 19 -3 23
3 3 2 6 -4 6 -5 0 -13 -3 -16 -7z"/>
<path d="M5269 1876 c-13 -37 -23 -44 -34 -26 -3 6 -11 10 -18 10 -6 0 4 -11
23 -25 36 -26 52 -33 32 -13 -8 8 -7 20 4 46 8 19 12 37 10 39 -2 3 -10 -12
-17 -31z"/>
<path d="M1955 540 c-35 -17 -68 -25 -108 -26 -31 0 -58 -5 -60 -10 -1 -5 26
-24 60 -42 l63 -33 -40 -59 -40 -59 49 -18 c27 -9 57 -23 67 -30 16 -12 15
-15 -12 -53 -16 -23 -35 -49 -42 -60 -12 -17 -8 -22 46 -59 69 -47 94 -70 88
-80 -3 -4 9 -8 25 -8 23 0 27 3 15 9 -22 12 -20 21 18 115 l33 82 -59 25 c-32
14 -58 29 -58 34 0 5 16 30 35 55 l36 47 -66 32 c-36 18 -65 36 -65 41 0 5 16
31 36 58 20 27 34 52 32 56 -1 5 -25 -3 -53 -17z m7 -37 c-6 -10 -20 -27 -31
-37 -20 -18 -22 -19 -61 -1 -48 22 -51 35 -7 36 17 0 48 6 67 13 42 15 45 13
32 -11z m36 -109 c29 -14 52 -29 52 -32 0 -4 -17 -26 -38 -50 l-37 -43 -57 21
c-32 12 -60 24 -62 28 -7 11 62 102 77 102 7 0 36 -12 65 -26z m60 -171 c23
-8 42 -16 42 -18 0 -1 -7 -21 -15 -44 -24 -68 -47 -111 -59 -111 -14 0 -126
79 -126 89 0 10 29 52 59 84 16 17 31 25 41 21 8 -3 34 -13 58 -21z"/>
</g>
</svg>
